<mxfile host="app.diagrams.net" agent="Mozilla/5.0 (X11; Linux x86_64; rv:135.0) Gecko/20100101 Firefox/135.0" version="26.0.16">
  <diagram name="Page-1" id="slWfrK2BVKOdpw72XCC3">
    <mxGraphModel dx="2049" dy="1084" grid="1" gridSize="10" guides="1" tooltips="1" connect="1" arrows="1" fold="1" page="1" pageScale="1" pageWidth="850" pageHeight="1100" math="0" shadow="0">
      <root>
        <mxCell id="0" />
        <mxCell id="1" parent="0" />
        <mxCell id="93AWualFPxAzArQefxKJ-14" value="" style="rounded=0;whiteSpace=wrap;html=1;fillColor=#f5f5f5;fontColor=#333333;strokeColor=#666666;" parent="1" vertex="1">
          <mxGeometry x="560" y="260" width="700" height="520" as="geometry" />
        </mxCell>
        <mxCell id="yjS7_VZbEDUMgCzmWkyh-1" value="&lt;div&gt;Benutzer&lt;/div&gt;" style="shape=umlActor;verticalLabelPosition=bottom;verticalAlign=top;html=1;outlineConnect=0;fillColor=#ffe6cc;strokeColor=#d79b00;" parent="1" vertex="1">
          <mxGeometry x="440" y="450" width="30" height="60" as="geometry" />
        </mxCell>
        <mxCell id="PhSC0Qj4RTv7cJ-6cNn7-1" value="&lt;div&gt;HDCP manuell&lt;/div&gt;&lt;div&gt;auslösen&lt;/div&gt;" style="ellipse;whiteSpace=wrap;html=1;" parent="1" vertex="1">
          <mxGeometry x="1030" y="330" width="120" height="80" as="geometry" />
        </mxCell>
        <mxCell id="WEPJUND3bTC0Y4J7LyjD-2" value="&lt;div&gt;DHCP Informationen &lt;br&gt;&lt;/div&gt;&lt;div&gt;anzeigen lassen&lt;br&gt;&lt;/div&gt;" style="ellipse;whiteSpace=wrap;html=1;" parent="1" vertex="1">
          <mxGeometry x="640" y="330" width="120" height="80" as="geometry" />
        </mxCell>
        <mxCell id="WEPJUND3bTC0Y4J7LyjD-3" value="&lt;div&gt;Netzvwerkerkehr&lt;/div&gt;&lt;div&gt;anzeigen lassen&lt;br&gt;&lt;/div&gt;" style="ellipse;whiteSpace=wrap;html=1;" parent="1" vertex="1">
          <mxGeometry x="850" y="430" width="120" height="80" as="geometry" />
        </mxCell>
        <mxCell id="WEPJUND3bTC0Y4J7LyjD-9" value="include" style="rounded=0;orthogonalLoop=1;jettySize=auto;html=1;exitX=1;exitY=0.5;exitDx=0;exitDy=0;entryX=0;entryY=0.5;entryDx=0;entryDy=0;" parent="1" source="WEPJUND3bTC0Y4J7LyjD-7" target="PhSC0Qj4RTv7cJ-6cNn7-1" edge="1">
          <mxGeometry relative="1" as="geometry" />
        </mxCell>
        <mxCell id="WEPJUND3bTC0Y4J7LyjD-7" value="&lt;div&gt;Zugang zum &lt;br&gt;&lt;/div&gt;&lt;div&gt;Netzwerk prüfen&lt;br&gt;&lt;/div&gt;" style="ellipse;whiteSpace=wrap;html=1;" parent="1" vertex="1">
          <mxGeometry x="850" y="330" width="120" height="80" as="geometry" />
        </mxCell>
        <mxCell id="93AWualFPxAzArQefxKJ-1" value="&lt;div&gt;Netzwerk-&lt;/div&gt;&lt;div&gt;verkehrmittschnitt&lt;/div&gt;&lt;div&gt;starten&lt;br&gt;&lt;/div&gt;" style="ellipse;whiteSpace=wrap;html=1;" parent="1" vertex="1">
          <mxGeometry x="640" y="430" width="120" height="80" as="geometry" />
        </mxCell>
        <mxCell id="93AWualFPxAzArQefxKJ-2" value="&lt;div&gt;Netzwerk-&lt;/div&gt;&lt;div&gt;verkehrmittschnitt&lt;/div&gt;&lt;div&gt;stoppen&lt;br&gt;&lt;/div&gt;" style="ellipse;whiteSpace=wrap;html=1;" parent="1" vertex="1">
          <mxGeometry x="640" y="540" width="120" height="80" as="geometry" />
        </mxCell>
        <mxCell id="93AWualFPxAzArQefxKJ-4" value="include" style="rounded=0;orthogonalLoop=1;jettySize=auto;html=1;exitX=1;exitY=0.5;exitDx=0;exitDy=0;entryX=0;entryY=0.5;entryDx=0;entryDy=0;" parent="1" source="93AWualFPxAzArQefxKJ-1" target="WEPJUND3bTC0Y4J7LyjD-3" edge="1">
          <mxGeometry relative="1" as="geometry">
            <mxPoint x="810" y="390" as="sourcePoint" />
            <mxPoint x="910" y="380" as="targetPoint" />
          </mxGeometry>
        </mxCell>
        <mxCell id="93AWualFPxAzArQefxKJ-5" value="" style="rounded=0;orthogonalLoop=1;jettySize=auto;html=1;exitX=1;exitY=0.3333333333333333;exitDx=0;exitDy=0;entryX=0;entryY=0.5;entryDx=0;entryDy=0;exitPerimeter=0;" parent="1" source="yjS7_VZbEDUMgCzmWkyh-1" target="WEPJUND3bTC0Y4J7LyjD-2" edge="1">
          <mxGeometry relative="1" as="geometry">
            <mxPoint x="840" y="617.5" as="sourcePoint" />
            <mxPoint x="940" y="607.5" as="targetPoint" />
          </mxGeometry>
        </mxCell>
        <mxCell id="93AWualFPxAzArQefxKJ-7" value="&lt;div&gt;Netzwerk-&lt;/div&gt;&lt;div&gt;verkehrdaten&lt;/div&gt;löschen" style="ellipse;whiteSpace=wrap;html=1;" parent="1" vertex="1">
          <mxGeometry x="640" y="640" width="120" height="80" as="geometry" />
        </mxCell>
        <mxCell id="93AWualFPxAzArQefxKJ-9" value="" style="rounded=0;orthogonalLoop=1;jettySize=auto;html=1;exitX=1;exitY=0.3333333333333333;exitDx=0;exitDy=0;entryX=0;entryY=0.5;entryDx=0;entryDy=0;exitPerimeter=0;" parent="1" source="yjS7_VZbEDUMgCzmWkyh-1" target="93AWualFPxAzArQefxKJ-1" edge="1">
          <mxGeometry relative="1" as="geometry">
            <mxPoint x="550" y="498" as="sourcePoint" />
            <mxPoint x="690" y="390" as="targetPoint" />
          </mxGeometry>
        </mxCell>
        <mxCell id="93AWualFPxAzArQefxKJ-10" value="" style="rounded=0;orthogonalLoop=1;jettySize=auto;html=1;exitX=1;exitY=0.3333333333333333;exitDx=0;exitDy=0;entryX=0;entryY=0.363;entryDx=0;entryDy=0;exitPerimeter=0;entryPerimeter=0;" parent="1" source="yjS7_VZbEDUMgCzmWkyh-1" target="93AWualFPxAzArQefxKJ-2" edge="1">
          <mxGeometry relative="1" as="geometry">
            <mxPoint x="550" y="498" as="sourcePoint" />
            <mxPoint x="690" y="390" as="targetPoint" />
          </mxGeometry>
        </mxCell>
        <mxCell id="93AWualFPxAzArQefxKJ-11" value="" style="rounded=0;orthogonalLoop=1;jettySize=auto;html=1;entryX=0;entryY=0.375;entryDx=0;entryDy=0;entryPerimeter=0;exitX=1;exitY=0.3333333333333333;exitDx=0;exitDy=0;exitPerimeter=0;" parent="1" source="yjS7_VZbEDUMgCzmWkyh-1" target="93AWualFPxAzArQefxKJ-7" edge="1">
          <mxGeometry relative="1" as="geometry">
            <mxPoint x="540" y="490" as="sourcePoint" />
            <mxPoint x="640" y="660" as="targetPoint" />
          </mxGeometry>
        </mxCell>
        <mxCell id="93AWualFPxAzArQefxKJ-12" value="include" style="rounded=0;orthogonalLoop=1;jettySize=auto;html=1;exitX=1;exitY=0.5;exitDx=0;exitDy=0;entryX=0;entryY=0.5;entryDx=0;entryDy=0;" parent="1" source="WEPJUND3bTC0Y4J7LyjD-2" target="WEPJUND3bTC0Y4J7LyjD-7" edge="1">
          <mxGeometry relative="1" as="geometry">
            <mxPoint x="950" y="390" as="sourcePoint" />
            <mxPoint x="1020" y="400" as="targetPoint" />
          </mxGeometry>
        </mxCell>
        <mxCell id="93AWualFPxAzArQefxKJ-17" value="Netzwerkprüfgerät System" style="rounded=0;whiteSpace=wrap;html=1;align=left;fontSize=16;fillColor=#f5f5f5;fontColor=#333333;strokeColor=#666666;" parent="1" vertex="1">
          <mxGeometry x="560" y="210" width="370" height="50" as="geometry" />
        </mxCell>
      </root>
    </mxGraphModel>
  </diagram>
</mxfile>
